<svg xmlns="http://www.w3.org/2000/svg">

  <!-- OTHERS ICON -->
  <symbol id="icon-male-alt" viewBox="0 0 24 24">
    <g fill="none" stroke="currentColor" stroke-linecap="round" stroke-linejoin="round" stroke-width="1.5">
      <path d="M12 6.569a6 6 0 1 1-7.165-.256M8.25 17.25v6"/>
      <path d="M9.634 13.824a6 6 0 1 1 8.6-.9m-.491-7.932L21.75.75M18 .75h3.75V4.5M5.25 20.25h6"/>
    </g>
  </symbol>

  <!-- FEMALE ICON -->
  <symbol id="icon-female" viewBox="0 0 24 24">
    <path
      fill="none"
      stroke="currentColor"
      stroke-linecap="round"
      stroke-linejoin="round"
      stroke-width="2"
      d="M7 9a5 5 0 1 0 10 0A5 5 0 1 0 7 9m5 5v7m-3-3h6"
    />
  </symbol>

  <!-- MALE ALT -->
  <symbol id="icon-male" viewBox="0 0 32 32">
    <path
      fill="currentColor"
      d="M18 4v2h6.586l-7.688 7.689a8.028 8.028 0 1 0 1.414 1.414L26 7.414V14h2V4Zm-6 22a6 6 0 1 1 6-6a6.007 6.007 0 0 1-6 6"
    />
  </symbol>

<!-- PAW -->
  <symbol id="icon-paw" viewBox="0 0 512 512">
  <path
    fill="none"
    stroke="currentColor"
    stroke-miterlimit="10"
    stroke-width="32"
    d="M457.74 170.1a30.3 30.3 0 0 0-11.16-2.1h-.4c-20.17.3-42.79 19.19-54.66 47.76c-14.23 34.18-7.68 69.15 14.74 78.14a30.2 30.2 0 0 0 11.15 2.1c20.27 0 43.2-19 55.17-47.76c14.13-34.18 7.48-69.15-14.84-78.14ZM327.6 303.48C299.8 257.35 287.8 240 256 240s-43.9 17.46-71.7 63.48c-23.8 39.36-71.9 42.64-83.9 76.07a50.9 50.9 0 0 0-3.6 19.25c0 27.19 20.8 49.2 46.4 49.2c31.8 0 75.1-25.39 112.9-25.39S337 448 368.8 448c25.6 0 46.3-22 46.3-49.2a51 51 0 0 0-3.7-19.25c-12-33.55-60-36.71-83.8-76.07ZM192.51 196a26.5 26.5 0 0 0 4-.3c23.21-3.37 37.7-35.53 32.44-71.85C224 89.61 203.22 64 181.49 64a26.5 26.5 0 0 0-4 .3c-23.21 3.37-37.7 35.53-32.44 71.85C150 170.29 170.78 196 192.51 196Zm174.41-59.85c5.26-36.32-9.23-68.48-32.44-71.85a26.5 26.5 0 0 0-4-.3c-21.73 0-42.47 25.61-47.43 59.85c-5.26 36.32 9.23 68.48 32.44 71.85a26.5 26.5 0 0 0 4 .3c21.73 0 42.51-25.71 47.43-59.85ZM105.77 293.9c22.39-9 28.93-44 14.72-78.14C108.53 187 85.62 168 65.38 168a30.2 30.2 0 0 0-11.15 2.1c-22.39 9-28.93 44-14.72 78.14C51.47 277 74.38 296 94.62 296a30.2 30.2 0 0 0 11.15-2.1Z"
  />
</symbol>

<!-- CLOUD -->
<symbol id="icon-upload-cloud" viewBox="0 0 24 24">
  <g
    fill="none"
    stroke="currentColor"
    stroke-linecap="round"
    stroke-linejoin="round"
    stroke-width="2"
  >
    <path d="M12 13v8m-8-6.101A7 7 0 1 1 15.71 8h1.79a4.5 4.5 0 0 1 2.5 8.242"/>
    <path d="m8 17l4-4l4 4"/>
  </g>
</symbol>

</svg>